<svg id="good" width="20" height="20" viewBox="0 0 20 28" fill="none" xmlns="http://www.w3.org/2000/svg">
<path d="M24.6422 10.7247H18.2616C17.6722 10.7247 17.0942 10.4754 16.8109 10.1127C16.6182 9.86336 16.5616 9.55736 16.6522 9.2287C16.7316 8.97936 18.4656 2.9727 14.8616 1.59003C14.1929 1.32936 13.6376 1.32936 13.1729 1.59003C12.2209 2.11136 11.9262 3.57336 11.5522 5.4207C11.0422 7.91403 10.4189 11.008 7.9369 12.742C7.5289 13.0254 7.1889 13.388 6.93957 13.7847C6.7129 13.4334 6.31623 13.2067 5.87423 13.2067H2.44023C1.73757 13.2067 1.1709 13.7734 1.1709 14.476V22.976C1.1709 23.6787 1.73757 24.2454 2.44023 24.2454H5.87423C6.4409 24.2454 6.9169 23.8827 7.0869 23.3727C7.31357 23.6334 7.58557 23.86 7.9029 24.03L10.5436 25.4354C11.9716 26.1947 13.5922 26.6027 15.2129 26.6027H22.2736C23.4862 26.6027 24.4722 25.6167 24.4722 24.404V23.8147C24.4722 23.5087 24.3816 23.2254 24.2342 22.9874C24.9596 22.8627 25.5149 22.228 25.5149 21.4687V20.222C25.5149 19.882 25.4016 19.5647 25.2202 19.3154C25.7982 19.0887 26.2176 18.5334 26.2176 17.876V16.346C26.2176 15.9947 26.1042 15.6774 25.9116 15.4167C26.4669 15.1787 26.8522 14.6347 26.8522 14V12.9234C26.8296 11.7107 25.8549 10.7247 24.6422 10.7247ZM6.4069 22.976C6.4069 23.2707 6.1689 23.52 5.8629 23.52H2.44023C2.14557 23.52 1.89623 23.282 1.89623 22.976V14.476C1.89623 14.1814 2.13423 13.9434 2.44023 13.9434H5.87423C6.1689 13.9434 6.41823 14.1814 6.41823 14.476V22.976H6.4069ZM26.1042 14C26.1042 14.442 25.7416 14.8047 25.2996 14.8047H24.6536C24.4496 14.8047 24.2909 14.9747 24.2909 15.1674C24.2909 15.3714 24.4609 15.53 24.6536 15.53C25.0956 15.53 25.4582 15.8927 25.4582 16.3347V17.8647C25.4582 18.3067 25.0956 18.6694 24.6536 18.6694H23.9509C23.7469 18.6694 23.5882 18.8394 23.5882 19.032C23.5882 19.236 23.7582 19.3947 23.9509 19.3947C24.3929 19.3947 24.7556 19.7574 24.7556 20.1994V21.446C24.7556 21.888 24.3929 22.2507 23.9509 22.2507H22.9196C22.7156 22.2507 22.5569 22.4207 22.5569 22.6134C22.5569 22.806 22.7269 22.976 22.9196 22.976C23.3616 22.976 23.7242 23.3387 23.7242 23.7807V24.37C23.7242 25.1747 23.0669 25.832 22.2622 25.832H15.1902C13.6829 25.832 12.1869 25.458 10.8609 24.7554L8.22023 23.35C7.55157 22.9874 7.13223 22.296 7.13223 21.5254V15.564C7.13223 14.6687 7.58557 13.83 8.3449 13.2974C11.0762 11.3934 11.7336 8.12936 12.2662 5.51136C12.5836 3.91336 12.8669 2.54203 13.5242 2.17936C13.6376 2.11136 13.7736 2.07736 13.9322 2.07736C14.1249 2.07736 14.3402 2.1227 14.5896 2.2247C17.5589 3.35803 15.9496 8.91136 15.9269 8.97936C15.7796 9.54603 15.8702 10.0787 16.2102 10.5094C16.6409 11.0647 17.4229 11.416 18.2502 11.416H24.6309C25.4356 11.416 26.0929 12.0734 26.0929 12.878V14H26.1042Z"  stroke-width="1.5"/>
</svg>
