<svg width="15" height="17" viewBox="0 0 15 17" fill="none" xmlns="http://www.w3.org/2000/svg">
<path d="M2.00556 12.4662L1.24793 11.0846L0.564574 9.83026L0.565039 9.83962L0.560059 9.83046L0.601695 10.6584L0.879473 16.1672C0.898764 16.541 1.21818 16.8306 1.59214 16.8114L4.23319 16.6789L4.28744 16.6761L4.31035 16.6768L4.30936 16.675L4.3144 16.6747L2.00556 12.4662Z" fill="#C4C4C4"/>
<path d="M8.86135 15.209L8.84843 15.1961L8.13158 14.4793L7.41472 13.7624L3.85279 10.2005L0.447443 6.78897L0.454814 6.80252L0.443359 6.79106L3.19772 11.8126L5.82389 16.599L5.85055 16.6471C6.03217 16.9762 6.44562 17.0969 6.77363 16.9164L8.16999 16.1503L8.87729 15.7636L9.09211 15.645L9.21931 15.5752L9.28854 15.54C9.28777 15.5395 9.28711 15.5388 9.28635 15.5384L9.29086 15.536C9.1359 15.4494 8.9916 15.3393 8.86135 15.209Z" fill="#C4C4C4"/>
<path d="M14.524 9.5465L8.24823 3.27075L7.5175 2.53991L6.9138 1.93635L5.29083 0.313379L5.26207 0.284625C5.13809 0.160644 4.97035 0.0890916 4.79617 0.0858045L4.55372 0.0805252L4.30483 0.0752127L2.60493 0.0377595L2.11883 0.0260388L1.72348 0.0174392L0.971332 0.00033962C0.923287 -0.000789286 0.875242 0.00243142 0.830252 0.011031C0.693588 0.0367302 0.569607 0.105062 0.475576 0.19906C0.359199 0.31557 0.283264 0.474713 0.277951 0.650955C0.276856 0.664834 0.276855 0.679842 0.276855 0.694816L0.297242 1.63387L0.291299 1.65837L0.282035 1.67909L0.287779 1.67238L0.285455 1.68198L0.299334 1.66597L0.321713 2.69268L0.362387 4.51965C0.365574 4.6938 0.437094 4.86158 0.561107 4.98546L7.31336 11.7378L8.02922 12.4536L8.74721 13.1715L9.82305 14.2475C10.0891 14.5135 10.5185 14.5135 10.7846 14.2475L11.6446 13.3875L12.1457 12.8863L12.6469 12.3853L14.524 10.5081C14.79 10.242 14.79 9.81246 14.524 9.5465ZM4.47841 4.09346C4.46188 4.11295 4.44601 4.1327 4.42761 4.1511C4.30151 4.2772 4.14877 4.3616 3.9896 4.40537C3.66049 4.49299 3.29622 4.40859 3.03872 4.1511C2.89237 4.0047 2.80156 3.82418 2.76626 3.63505C2.76304 3.61257 2.75985 3.59229 2.75766 3.5709C2.72459 3.28356 2.81749 2.98334 3.03872 2.76214C3.42229 2.37858 4.04405 2.37858 4.42761 2.76214C4.75353 3.08806 4.80258 3.58591 4.57397 3.96416C4.56109 3.98521 4.54598 4.0054 4.53144 4.02569C4.51457 4.04936 4.49684 4.07184 4.47841 4.09346Z" fill="#C4C4C4"/>
<path d="M0.405023 6.75271L0.443406 6.79106L0.402832 6.71841L0.405023 6.75271Z" fill="#C4C4C4"/>
</svg>
