<svg width="18" height="18" viewBox="0 0 18 18" fill="none" xmlns="http://www.w3.org/2000/svg">
<path d="M15.375 1.125H2.625C1.79657 1.125 1.125 1.79657 1.125 2.625V15.375C1.125 16.2034 1.79657 16.875 2.625 16.875H15.375C16.2034 16.875 16.875 16.2034 16.875 15.375V2.625C16.875 1.79657 16.2034 1.125 15.375 1.125Z" stroke="#C4C4C4" stroke-width="1.4" stroke-linecap="round" stroke-linejoin="round"/>
<path d="M1.125 13.4998L6.78375 7.84109L10.3387 11.3961L12.705 9.02984L16.875 13.1248" stroke="#C4C4C4" stroke-width="1.4" stroke-linecap="round" stroke-linejoin="round"/>
<path d="M11.625 6.74985C12.4534 6.74985 13.125 6.07827 13.125 5.24985C13.125 4.42142 12.4534 3.74985 11.625 3.74985C10.7966 3.74985 10.125 4.42142 10.125 5.24985C10.125 6.07827 10.7966 6.74985 11.625 6.74985Z" stroke="#C4C4C4" stroke-width="1.4" stroke-linecap="round" stroke-linejoin="round"/>
</svg>
