<svg width="18" height="21" viewBox="0 0 18 21" fill="none" xmlns="http://www.w3.org/2000/svg">
<path d="M14.5 7C14.5 11 9 16.5 9 16.5C9 16.5 3.5 11 3.5 7C3.5 5.54131 4.07946 4.14236 5.11091 3.11091C6.14236 2.07946 7.54131 1.5 9 1.5C10.4587 1.5 11.8576 2.07946 12.8891 3.11091C13.9205 4.14236 14.5 5.54131 14.5 7V7Z" stroke="#C4C4C4" stroke-width="1.5" stroke-linecap="round" stroke-linejoin="round"/>
<path d="M9 8.5C9.82843 8.5 10.5 7.82843 10.5 7C10.5 6.17157 9.82843 5.5 9 5.5C8.17157 5.5 7.5 6.17157 7.5 7C7.5 7.82843 8.17157 8.5 9 8.5Z" stroke="#C4C4C4" stroke-width="1.5" stroke-linecap="round" stroke-linejoin="round"/>
<path d="M13.935 15.5299C15.8 15.9999 17 16.6999 17 17.4999C17 18.8799 13.42 19.9999 9 19.9999C4.58 19.9999 1 18.8799 1 17.4999C1 16.6999 2.2 15.9999 4.065 15.5299" stroke="#C4C4C4" stroke-width="1.5" stroke-linecap="round" stroke-linejoin="round"/>
</svg>
