<svg width="21" height="19" viewBox="0 0 21 19" fill="none" xmlns="http://www.w3.org/2000/svg">
<path d="M18.0002 6.5H18.3031C18.4931 6.49999 18.6813 6.53742 18.8569 6.61014C19.0324 6.68286 19.192 6.78945 19.3263 6.92382C19.4607 7.0582 19.5673 7.21772 19.64 7.39329C19.7128 7.56887 19.7502 7.75704 19.7502 7.94707V16.7196C19.7502 16.9096 19.7128 17.0978 19.64 17.2734C19.5673 17.4489 19.4607 17.6085 19.3263 17.7428C19.192 17.8772 19.0324 17.9838 18.8569 18.0565C18.6813 18.1293 18.4931 18.1667 18.3031 18.1667H2.53057C2.34054 18.1667 2.15236 18.1293 1.97679 18.0565C1.80122 17.9838 1.64169 17.8772 1.50732 17.7428C1.37294 17.6085 1.26635 17.4489 1.19363 17.2734C1.12091 17.0978 1.08349 16.9096 1.0835 16.7196V7.94707C1.08349 7.75704 1.12091 7.56887 1.19363 7.39329C1.26635 7.21772 1.37294 7.0582 1.50732 6.92382C1.64169 6.78945 1.80122 6.68286 1.97679 6.61014C2.15236 6.53742 2.34054 6.49999 2.53057 6.5H4.5835" stroke="#C4C4C4" stroke-width="1.3" stroke-linecap="round" stroke-linejoin="round"/>
<path d="M4.7505 9.12496L13.2088 0.666626C13.8419 0.707485 14.4485 0.936283 14.9508 1.32375C15.3645 1.83863 15.6139 2.46596 15.6665 3.12433L7.2082 11.5827L4.25391 12.1045L4.7505 9.12496Z" stroke="#C4C4C4" stroke-width="1.3" stroke-linecap="round" stroke-linejoin="round"/>
<path d="M11.5835 12.3334H16.8335" stroke="#C4C4C4" stroke-width="1.3" stroke-linecap="round" stroke-linejoin="round"/>
<path d="M9.25 15.25H16.8333" stroke="#C4C4C4" stroke-width="1.3" stroke-linecap="round" stroke-linejoin="round"/>
<path d="M10.584 3.29163L13.0417 5.74933" stroke="#C4C4C4" stroke-width="1.3" stroke-linecap="round" stroke-linejoin="round"/>
<path d="M15.1415 3.64981L15.889 4.39735C15.9908 4.46762 16.0758 4.55961 16.1377 4.66668C16.1997 4.77376 16.2371 4.89325 16.2472 5.01654C16.2574 5.13983 16.2401 5.26383 16.1965 5.37961C16.1529 5.49539 16.0842 5.60006 15.9953 5.68605L13.1396 8.5417" stroke="#C4C4C4" stroke-width="1.3" stroke-linecap="round" stroke-linejoin="round"/>
</svg>
