<svg width="19" height="19" viewBox="0 0 19 19" fill="none" xmlns="http://www.w3.org/2000/svg">
<path d="M18.25 9.5C18.25 14.3325 14.3325 18.25 9.5 18.25C4.66751 18.25 0.75 14.3325 0.75 9.5C0.75 4.66751 4.66751 0.75 9.5 0.75C14.3325 0.75 18.25 4.66751 18.25 9.5Z" stroke="#C4C4C4" stroke-width="1.5"/>
<path d="M8.365 11.281C8.341 11.179 8.305 11.029 8.257 10.831C8.215 10.627 8.167 10.411 8.113 10.183C8.059 9.949 8.008 9.736 7.96 9.544C7.912 9.346 7.879 9.202 7.861 9.112H7.825C7.807 9.202 7.774 9.346 7.726 9.544C7.684 9.736 7.636 9.949 7.582 10.183C7.528 10.411 7.477 10.627 7.429 10.831C7.381 11.035 7.345 11.191 7.321 11.299L6.925 13H5.485L4.09 8.086H5.422L5.989 10.264C6.031 10.414 6.067 10.594 6.097 10.804C6.133 11.014 6.166 11.218 6.196 11.416C6.226 11.608 6.247 11.761 6.259 11.875H6.295C6.301 11.791 6.313 11.68 6.331 11.542C6.349 11.398 6.37 11.251 6.394 11.101C6.424 10.951 6.448 10.816 6.466 10.696C6.49 10.57 6.508 10.486 6.52 10.444L7.123 8.086H8.599L9.175 10.444C9.199 10.528 9.226 10.663 9.256 10.849C9.292 11.035 9.322 11.224 9.346 11.416C9.376 11.608 9.391 11.761 9.391 11.875H9.427C9.439 11.773 9.46 11.626 9.49 11.434C9.52 11.236 9.553 11.029 9.589 10.813C9.631 10.597 9.673 10.414 9.715 10.264L10.3 8.086H11.614L10.201 13H8.743L8.365 11.281ZM15.38 6.574L12.986 13H11.771L14.165 6.574H15.38Z" fill="#C4C4C4"/>
</svg>
