<svg width="35" height="35" viewBox="0 0 35 35" fill="none" xmlns="http://www.w3.org/2000/svg">
<path d="M23.9313 11.6667C23.1583 7.53958 19.1042 4.375 14.2188 4.375C8.75 4.375 4.375 8.29063 4.375 13.125C4.38819 14.2686 4.63868 15.397 5.11061 16.4388C5.58255 17.4806 6.26565 18.413 7.11667 19.1771C7.07219 19.7674 6.90838 20.3425 6.63515 20.8677C6.36192 21.3928 5.98496 21.8571 5.52708 22.2323C7.12185 22.4041 8.72337 21.9751 10.0187 21.0292C10.5532 21.2515 11.1042 21.4319 11.6667 21.5688" stroke="#888888" stroke-width="2" stroke-linecap="round" stroke-linejoin="round"/>
<path d="M23.698 13.8542C29.1667 13.8542 33.5417 17.7625 33.5417 22.6042C33.5286 23.7478 33.2781 24.8762 32.8061 25.918C32.3342 26.9598 31.6511 27.8922 30.8001 28.6563C30.8455 29.2453 31.0098 29.8191 31.283 30.3429C31.5562 30.8667 31.9326 31.3298 32.3897 31.7042C30.7956 31.8809 29.1932 31.4543 27.898 30.5084C26.5674 31.0644 25.1401 31.3519 23.698 31.3542C18.2292 31.3542 13.8542 27.424 13.8542 22.6042C13.8542 17.7844 18.2292 13.8542 23.698 13.8542Z" stroke="#888888" stroke-width="2" stroke-linecap="round" stroke-linejoin="round"/>
<path d="M20.4167 21.1458H26.9792" stroke="#888888" stroke-width="2" stroke-linecap="round" stroke-linejoin="round"/>
<path d="M20.4167 24.7917H23.3334" stroke="#888888" stroke-width="2" stroke-linecap="round" stroke-linejoin="round"/>
<path d="M10.9375 10.8865H17.5" stroke="#888888" stroke-width="2" stroke-linecap="round" stroke-linejoin="round"/>
<path d="M10.9375 14.5323H13.8542" stroke="#888888" stroke-width="2" stroke-linecap="round" stroke-linejoin="round"/>
</svg>
