<?xml version="1.0" encoding="utf-8"?>
<!-- Generator: Adobe Illustrator 19.0.0, SVG Export Plug-In . SVG Version: 6.00 Build 0)  -->
<svg version="1.1" id="good" xmlns="http://www.w3.org/2000/svg" xmlns:xlink="http://www.w3.org/1999/xlink" x="0px" y="0px"
	 viewBox="-295 387 20 20" style="enable-background:new -295 387 20 20;" xml:space="preserve">
<style type="text/css">
	.st0{fill:none;}
</style>
<path class="st0" d="M-277.4,394.7h-4.6c-0.4,0-0.8-0.2-1-0.4c-0.1-0.2-0.2-0.4-0.1-0.6c0.1-0.2,1.3-4.5-1.3-5.5
	c-0.5-0.2-0.9-0.2-1.2,0c-0.7,0.4-0.9,1.4-1.2,2.7c-0.4,1.8-0.8,4-2.6,5.2c-0.3,0.2-0.5,0.5-0.7,0.7c-0.2-0.3-0.4-0.4-0.8-0.4h-2.5
	c-0.5,0-0.9,0.4-0.9,0.9v6.1c0,0.5,0.4,0.9,0.9,0.9h2.5c0.4,0,0.7-0.3,0.9-0.6c0.2,0.2,0.4,0.3,0.6,0.5l1.9,1c1,0.5,2.2,0.8,3.3,0.8
	h5c0.9,0,1.6-0.7,1.6-1.6V404c0-0.2-0.1-0.4-0.2-0.6c0.5-0.1,0.9-0.5,0.9-1.1v-0.9c0-0.2-0.1-0.5-0.2-0.6c0.4-0.2,0.7-0.6,0.7-1
	v-1.1c0-0.3-0.1-0.5-0.2-0.7c0.4-0.2,0.7-0.6,0.7-1v-0.8C-275.8,395.4-276.5,394.7-277.4,394.7z M-290.4,403.4
	c0,0.2-0.2,0.4-0.4,0.4h-2.4c-0.2,0-0.4-0.2-0.4-0.4v-6.1c0-0.2,0.2-0.4,0.4-0.4h2.5c0.2,0,0.4,0.2,0.4,0.4L-290.4,403.4
	L-290.4,403.4z M-276.4,397c0,0.3-0.3,0.6-0.6,0.6h-0.5c-0.1,0-0.3,0.1-0.3,0.3c0,0.1,0.1,0.3,0.3,0.3c0.3,0,0.6,0.3,0.6,0.6v1.1
	c0,0.3-0.3,0.6-0.6,0.6h-0.5c-0.1,0-0.3,0.1-0.3,0.3c0,0.1,0.1,0.3,0.3,0.3c0.3,0,0.6,0.3,0.6,0.6v0.9c0,0.3-0.3,0.6-0.6,0.6h-0.7
	c-0.1,0-0.3,0.1-0.3,0.3c0,0.1,0.1,0.3,0.3,0.3c0.3,0,0.6,0.3,0.6,0.6v0.4c0,0.6-0.5,1-1,1h-5.1c-1.1,0-2.1-0.3-3.1-0.8l-1.9-1
	c-0.5-0.3-0.8-0.8-0.8-1.3v-4.3c0-0.6,0.3-1.2,0.9-1.6c2-1.4,2.4-3.7,2.8-5.6c0.2-1.1,0.4-2.1,0.9-2.4c0.1,0,0.2-0.1,0.3-0.1
	c0.1,0,0.3,0,0.5,0.1c2.1,0.8,1,4.8,1,4.8c-0.1,0.4,0,0.8,0.2,1.1c0.3,0.4,0.9,0.6,1.5,0.6h4.6c0.6,0,1,0.5,1,1L-276.4,397
	L-276.4,397z"/>
</svg>
