<svg width="18" height="20" viewBox="0 0 18 20" fill="none" xmlns="http://www.w3.org/2000/svg">
<path d="M14.5 5.5C14.5 9.5 9 15 9 15C9 15 3.5 9.5 3.5 5.5C3.5 4.04131 4.07946 2.64236 5.11091 1.61091C6.14236 0.579463 7.54131 0 9 0C10.4587 0 11.8576 0.579463 12.8891 1.61091C13.9205 2.64236 14.5 4.04131 14.5 5.5V5.5Z" fill="#DA4943"/>
<path d="M9 7C9.82843 7 10.5 6.32843 10.5 5.5C10.5 4.67157 9.82843 4 9 4C8.17157 4 7.5 4.67157 7.5 5.5C7.5 6.32843 8.17157 7 9 7Z" fill="white" stroke="white" stroke-linecap="round" stroke-linejoin="round"/>
<path d="M13.935 14.0299C15.8 14.4999 17 15.1999 17 15.9999C17 17.3799 13.42 18.4999 9 18.4999C4.58 18.4999 1 17.3799 1 15.9999C1 15.1999 2.2 14.4999 4.065 14.0299" stroke="#DA4943" stroke-width="1.5" stroke-linecap="round" stroke-linejoin="round"/>
</svg>
