<svg width="26" height="24" viewBox="0 0 26 24" fill="none" xmlns="http://www.w3.org/2000/svg">
<path d="M23.9994 12.1688V15.6633C24.0061 16.0856 23.9296 16.505 23.7742 16.8977C23.6188 17.2903 23.3876 17.6485 23.0937 17.9518C22.7998 18.2551 22.4491 18.4975 22.0616 18.6653C21.674 18.833 21.2572 18.9227 20.8349 18.9293H2.00024" stroke="#888888" stroke-width="2.5" stroke-linejoin="round"/>
<path d="M6.46777 14.8679L2.00024 18.9293L6.46777 22.9992" stroke="#888888" stroke-width="2.5" stroke-linejoin="round"/>
<path d="M19.532 9.13123L23.9995 5.06985L19.532 1" stroke="#888888" stroke-width="2.5" stroke-linejoin="round"/>
<path d="M2.00041 11.8304V8.33589C1.99369 7.91364 2.07021 7.4942 2.22562 7.10153C2.38102 6.70886 2.61226 6.35066 2.90612 6.04737C3.19998 5.74408 3.55071 5.50165 3.93828 5.33392C4.32584 5.1662 4.74265 5.07647 5.1649 5.06985H23.9996" stroke="#888888" stroke-width="2.5" stroke-linejoin="round"/>
</svg>
