<svg width="15" height="15" viewBox="0 0 15 15" fill="none" xmlns="http://www.w3.org/2000/svg">
<path d="M5.625 4.6875H8.4375" stroke="#888888" stroke-width="1.2" stroke-linecap="round" stroke-linejoin="round"/>
<path d="M5.625 7.1875H8.4375" stroke="#888888" stroke-width="1.2" stroke-linecap="round" stroke-linejoin="round"/>
<path d="M5.625 9.6875H6.5625" stroke="#888888" stroke-width="1.2" stroke-linecap="round" stroke-linejoin="round"/>
<path d="M8.75 1.56246H3.84375C3.49996 1.55064 3.1655 1.67555 2.91363 1.90985C2.66177 2.14414 2.51303 2.46871 2.5 2.81246V12.1875C2.51303 12.5312 2.66177 12.8558 2.91363 13.0901C3.1655 13.3244 3.49996 13.4493 3.84375 13.4375H9.375" stroke="#888888" stroke-width="1.2" stroke-linecap="round" stroke-linejoin="round"/>
<path d="M10.625 11.25L11.875 13.75L13.125 11.25" stroke="#888888" stroke-width="1.2" stroke-linecap="round" stroke-linejoin="round"/>
<path d="M13.125 11.25V2.5C13.125 2.16848 12.9933 1.85054 12.7589 1.61612C12.5245 1.3817 12.2065 1.25 11.875 1.25C11.5435 1.25 11.2255 1.3817 10.9911 1.61612C10.7567 1.85054 10.625 2.16848 10.625 2.5V11.25" stroke="#888888" stroke-width="1.2" stroke-linecap="round" stroke-linejoin="round"/>
</svg>
