<svg width="14" height="14" viewBox="0 0 14 14" fill="none" xmlns="http://www.w3.org/2000/svg">
<path d="M11.9583 0.875H2.04167C1.39733 0.875 0.875 1.39733 0.875 2.04167V11.9583C0.875 12.6027 1.39733 13.125 2.04167 13.125H11.9583C12.6027 13.125 13.125 12.6027 13.125 11.9583V2.04167C13.125 1.39733 12.6027 0.875 11.9583 0.875Z" stroke="#888888" stroke-width="1.1" stroke-linecap="round" stroke-linejoin="round"/>
<path d="M0.875 10.5L5.27625 6.09875L8.04125 8.86375L9.88167 7.02334L13.125 10.2083" stroke="#888888" stroke-width="1.1" stroke-linecap="round" stroke-linejoin="round"/>
<path d="M9.04167 5.25001C9.686 5.25001 10.2083 4.72767 10.2083 4.08334C10.2083 3.43901 9.686 2.91667 9.04167 2.91667C8.39733 2.91667 7.875 3.43901 7.875 4.08334C7.875 4.72767 8.39733 5.25001 9.04167 5.25001Z" stroke="#888888" stroke-width="1.1" stroke-linecap="round" stroke-linejoin="round"/>
</svg>
