<svg width="15" height="15" viewBox="0 0 15 15" fill="none" xmlns="http://www.w3.org/2000/svg">
<path d="M14.5 7.5C14.5 11.366 11.366 14.5 7.5 14.5C3.63401 14.5 0.5 11.366 0.5 7.5C0.5 3.63401 3.63401 0.5 7.5 0.5C11.366 0.5 14.5 3.63401 14.5 7.5Z" stroke="#888888"/>
<path d="M6.395 8.663C6.37633 8.58367 6.34833 8.467 6.311 8.313C6.27833 8.15433 6.241 7.98633 6.199 7.809C6.157 7.627 6.11733 7.46133 6.08 7.312C6.04267 7.158 6.017 7.046 6.003 6.976H5.975C5.961 7.046 5.93533 7.158 5.898 7.312C5.86533 7.46133 5.828 7.627 5.786 7.809C5.744 7.98633 5.70433 8.15433 5.667 8.313C5.62967 8.47167 5.60167 8.593 5.583 8.677L5.275 10H4.155L3.07 6.178H4.106L4.547 7.872C4.57967 7.98867 4.60767 8.12867 4.631 8.292C4.659 8.45533 4.68467 8.614 4.708 8.768C4.73133 8.91733 4.74767 9.03633 4.757 9.125H4.785C4.78967 9.05967 4.799 8.97333 4.813 8.866C4.827 8.754 4.84333 8.63967 4.862 8.523C4.88533 8.40633 4.904 8.30133 4.918 8.208C4.93667 8.11 4.95067 8.04467 4.96 8.012L5.429 6.178H6.577L7.025 8.012C7.04367 8.07733 7.06467 8.18233 7.088 8.327C7.116 8.47167 7.13933 8.61867 7.158 8.768C7.18133 8.91733 7.193 9.03633 7.193 9.125H7.221C7.23033 9.04567 7.24667 8.93133 7.27 8.782C7.29333 8.628 7.319 8.467 7.347 8.299C7.37967 8.131 7.41233 7.98867 7.445 7.872L7.9 6.178H8.922L7.823 10H6.689L6.395 8.663ZM11.8511 5.002L9.98912 10H9.04412L10.9061 5.002H11.8511Z" fill="#888888"/>
</svg>
