<svg width="10" height="10" viewBox="0 0 10 10" fill="none" xmlns="http://www.w3.org/2000/svg">
<path d="M9.61877 2.47931H0.38123C0.171895 2.47931 0 2.6512 0 2.86056V4.934H3.89283H3.90473H3.90787V4.33242C3.90787 4.1606 4.04848 4.01992 4.22037 4.01992H5.77973C5.95314 4.01992 6.09223 4.1606 6.09223 4.33242V4.934H10V2.86056C10 2.6512 9.82818 2.47931 9.61877 2.47931Z" fill="#4B4B4B"/>
<path d="M6.09223 6.08242C6.09223 6.25431 5.95314 6.39492 5.77973 6.39492H4.22037C4.04848 6.39492 3.90787 6.25431 3.90787 6.08242V5.48083H0V8.79488C0 9.00271 0.171895 9.17613 0.38123 9.17613H9.61877C9.82818 9.17613 10 9.00271 10 8.79488V5.48083H6.09223V6.08242Z" fill="#4B4B4B"/>
<path d="M3.68479 1.987C3.73788 1.987 3.78702 1.9587 3.81358 1.91269L4.08954 1.43609C4.11542 1.39138 4.16317 1.36384 4.21481 1.36384H5.78524C5.83688 1.36384 5.88466 1.39138 5.91052 1.43609L6.18647 1.91269C6.2131 1.9587 6.26216 1.987 6.31526 1.987H7.08964L6.14343 0.823761H3.85661L3.277 1.53634L2.9104 1.98388H2.913L2.9104 1.987H3.68479Z" fill="#4B4B4B"/>
<path d="M5.46733 4.93401V4.64493H4.53296V4.93401V5.48089V5.76997H5.46733V5.48089V4.93401Z" fill="#4B4B4B"/>
</svg>
