<svg width="27" height="27" viewBox="0 0 27 27" fill="none" xmlns="http://www.w3.org/2000/svg">
<path d="M10.125 8.4375H15.1875" stroke="#374149" stroke-width="2" stroke-linecap="round" stroke-linejoin="round"/>
<path d="M10.125 12.9375H15.1875" stroke="#374149" stroke-width="2" stroke-linecap="round" stroke-linejoin="round"/>
<path d="M10.125 17.4375H11.8125" stroke="#374149" stroke-width="2" stroke-linecap="round" stroke-linejoin="round"/>
<path d="M15.75 2.81254H6.91875C6.29993 2.79126 5.6979 3.01611 5.24454 3.43784C4.79118 3.85957 4.52345 4.4438 4.5 5.06254V21.9375C4.52345 22.5563 4.79118 23.1405 5.24454 23.5622C5.6979 23.984 6.29993 24.2088 6.91875 24.1875H16.875" stroke="#374149" stroke-width="2" stroke-linecap="round" stroke-linejoin="round"/>
<path d="M19.125 20.25L21.375 24.75L23.625 20.25" stroke="#374149" stroke-width="2" stroke-linecap="round" stroke-linejoin="round"/>
<path d="M23.625 20.25V4.5C23.625 3.90326 23.3879 3.33097 22.966 2.90901C22.544 2.48705 21.9717 2.25 21.375 2.25C20.7783 2.25 20.206 2.48705 19.784 2.90901C19.3621 3.33097 19.125 3.90326 19.125 4.5V20.25" stroke="#374149" stroke-width="2" stroke-linecap="round" stroke-linejoin="round"/>
</svg>
