<svg width="29" height="29" viewBox="0 0 29 29" fill="none" xmlns="http://www.w3.org/2000/svg">
<path d="M15.503 21.46C14.7816 21.6522 14.0383 21.7497 13.2917 21.75C11.3348 21.7499 9.43856 21.0712 7.92597 19.8297C6.41337 18.5882 5.37805 16.8606 4.99641 14.9413C4.61477 13.022 4.91043 11.0297 5.833 9.304C6.75558 7.57825 8.24799 6.22578 10.0559 5.47703C11.8639 4.72828 13.8756 4.62957 15.7481 5.19773C17.6207 5.76589 19.2384 6.96577 20.3254 8.59291C21.4125 10.22 21.9018 12.1738 21.7099 14.1212C21.518 16.0687 20.6568 17.8893 19.273 19.273" stroke="#374149" stroke-width="2" stroke-linecap="round" stroke-linejoin="round"/>
<path d="M24.1667 24.1667L19.2729 19.2729" stroke="#374149" stroke-width="2" stroke-linecap="round" stroke-linejoin="round"/>
</svg>
