<svg width="25" height="25" viewBox="0 0 25 25" fill="none" xmlns="http://www.w3.org/2000/svg">
<path d="M22.2031 9.95809H16.3854C15.8481 9.95809 15.3211 9.73075 15.0627 9.40009C14.8871 9.17275 14.8354 8.89375 14.9181 8.59409C14.9904 8.36675 16.5714 2.89009 13.2854 1.62942C12.6757 1.39176 12.1694 1.39176 11.7457 1.62942C10.8777 2.10476 10.6091 3.43776 10.2681 5.12209C9.80307 7.39542 9.23474 10.2164 6.97174 11.7974C6.59974 12.0558 6.28974 12.3864 6.0624 12.7481C5.85574 12.4278 5.49407 12.2211 5.09107 12.2211H1.96007C1.3194 12.2211 0.802734 12.7378 0.802734 13.3784V21.1284C0.802734 21.7691 1.3194 22.2858 1.96007 22.2858H5.09107C5.60774 22.2858 6.04174 21.9551 6.19674 21.4901C6.4034 21.7278 6.6514 21.9344 6.94074 22.0894L9.3484 23.3708C10.6504 24.0631 12.1281 24.4351 13.6057 24.4351H20.0434C21.1491 24.4351 22.0481 23.5361 22.0481 22.4304V21.8931C22.0481 21.6141 21.9654 21.3558 21.8311 21.1388C22.4924 21.0251 22.9987 20.4464 22.9987 19.7541V18.6174C22.9987 18.3074 22.8954 18.0181 22.7301 17.7908C23.2571 17.5841 23.6394 17.0778 23.6394 16.4784V15.0834C23.6394 14.7631 23.5361 14.4738 23.3604 14.2361C23.8667 14.0191 24.2181 13.5231 24.2181 12.9444V11.9628C24.1974 10.8571 23.3087 9.95809 22.2031 9.95809ZM5.57674 21.1284C5.57674 21.3971 5.35974 21.6244 5.08074 21.6244H1.96007C1.6914 21.6244 1.46407 21.4074 1.46407 21.1284V13.3784C1.46407 13.1098 1.68107 12.8928 1.96007 12.8928H5.09107C5.35974 12.8928 5.58707 13.1098 5.58707 13.3784V21.1284H5.57674ZM23.5361 12.9444C23.5361 13.3474 23.2054 13.6781 22.8024 13.6781H22.2134C22.0274 13.6781 21.8827 13.8331 21.8827 14.0088C21.8827 14.1948 22.0377 14.3394 22.2134 14.3394C22.6164 14.3394 22.9471 14.6701 22.9471 15.0731V16.4681C22.9471 16.8711 22.6164 17.2018 22.2134 17.2018H21.5727C21.3867 17.2018 21.2421 17.3568 21.2421 17.5324C21.2421 17.7184 21.3971 17.8631 21.5727 17.8631C21.9757 17.8631 22.3064 18.1938 22.3064 18.5968V19.7334C22.3064 20.1364 21.9757 20.4671 21.5727 20.4671H20.6324C20.4464 20.4671 20.3017 20.6221 20.3017 20.7978C20.3017 20.9734 20.4567 21.1284 20.6324 21.1284C21.0354 21.1284 21.3661 21.4591 21.3661 21.8621V22.3994C21.3661 23.1331 20.7667 23.7324 20.0331 23.7324H13.5851C12.2107 23.7324 10.8467 23.3914 9.63774 22.7508L7.23007 21.4694C6.6204 21.1388 6.23807 20.5084 6.23807 19.8058V14.3704C6.23807 13.5541 6.6514 12.7894 7.34374 12.3038C9.83407 10.5678 10.4334 7.59175 10.9191 5.20475C11.2084 3.74775 11.4667 2.49742 12.0661 2.16676C12.1694 2.10476 12.2934 2.07376 12.4381 2.07376C12.6137 2.07376 12.8101 2.11509 13.0374 2.20809C15.7447 3.24142 14.2774 8.30475 14.2567 8.36675C14.1224 8.88342 14.2051 9.36909 14.5151 9.76175C14.9077 10.2681 15.6207 10.5884 16.3751 10.5884H22.1927C22.9264 10.5884 23.5257 11.1878 23.5257 11.9214V12.9444H23.5361Z" fill="white" stroke="#FFC0C0"/>
</svg>
