<svg width="19" height="24" viewBox="0 0 19 24" fill="none" xmlns="http://www.w3.org/2000/svg">
<path d="M11.6552 20.9977C11.4825 21.4842 11.1633 21.9052 10.7416 22.203C10.3199 22.5008 9.81629 22.6606 9.30003 22.6606C8.78378 22.6606 8.28019 22.5008 7.85847 22.203C7.43674 21.9052 7.11758 21.4842 6.94482 20.9977" stroke="#FFD0A5" stroke-width="1.5" stroke-linecap="round" stroke-linejoin="round"/>
<path d="M15.9498 9.08307C15.9494 7.70824 15.5228 6.36733 14.7289 5.2449C13.935 4.12248 12.8127 3.27372 11.5165 2.81544C11.4503 2.27853 11.1902 1.78433 10.7849 1.42595C10.3797 1.06757 9.8574 0.869751 9.31643 0.869751C8.77546 0.869751 8.25317 1.06757 7.84794 1.42595C7.44271 1.78433 7.18252 2.27853 7.11639 2.81544C5.81397 3.26816 4.68448 4.11455 3.88426 5.23744C3.08404 6.36034 2.65265 7.70421 2.6498 9.08307V12.4081C2.6498 13.2947 0.987305 14.6247 0.987305 15.7331V17.9497H17.6123V15.7331C17.6123 14.8353 16.504 13.8212 16.1105 12.9622" stroke="#FFD0A5" stroke-width="1.5" stroke-linecap="round" stroke-linejoin="round"/>
</svg>
