<svg width="30" height="30" viewBox="0 0 30 30" fill="none" xmlns="http://www.w3.org/2000/svg">
<circle cx="15" cy="15" r="14.5" fill="#FFF6EE" stroke="#FF9838"/>
<path d="M16.1825 21.4271C16.0591 21.7746 15.8311 22.0754 15.5299 22.2881C15.2286 22.5008 14.8689 22.615 14.5002 22.615C14.1314 22.615 13.7717 22.5008 13.4705 22.2881C13.1692 22.0754 12.9413 21.7746 12.8179 21.4271" stroke="#FF9838" stroke-width="1.5" stroke-linecap="round" stroke-linejoin="round"/>
<path d="M19.25 12.9167C19.2497 11.9347 18.945 10.9769 18.3779 10.1752C17.8108 9.37343 17.0092 8.76717 16.0833 8.43983C16.0361 8.05632 15.8502 7.70332 15.5608 7.44734C15.2714 7.19135 14.8983 7.05005 14.5119 7.05005C14.1255 7.05005 13.7524 7.19135 13.463 7.44734C13.1735 7.70332 12.9877 8.05632 12.9404 8.43983C12.0101 8.7632 11.2033 9.36776 10.6318 10.1698C10.0602 10.9719 9.75203 11.9318 9.75 12.9167V15.2917C9.75 15.925 8.5625 16.875 8.5625 17.6667V19.25H20.4375V17.6667C20.4375 17.0255 19.6458 16.3011 19.3648 15.6875" stroke="#FF9838" stroke-width="1.5" stroke-linecap="round" stroke-linejoin="round"/>
</svg>
