<svg width="15" height="15" viewBox="0 0 15 15" fill="none" xmlns="http://www.w3.org/2000/svg">
<path d="M8.01869 11.1C7.64556 11.1994 7.26108 11.2498 6.87494 11.25C5.86276 11.2499 4.88192 10.8989 4.09955 10.2567C3.31717 9.61456 2.78166 8.72097 2.58426 7.72823C2.38686 6.73549 2.53978 5.70502 3.01698 4.81239C3.49417 3.91976 4.26611 3.22021 5.20126 2.83292C6.13641 2.44564 7.17692 2.39459 8.14549 2.68846C9.11407 2.98234 9.95078 3.60296 10.5131 4.44459C11.0754 5.28621 11.3284 6.29676 11.2292 7.30406C11.1299 8.31136 10.6844 9.25307 9.96869 9.96875" stroke="#888888" stroke-width="1.3" stroke-linecap="round" stroke-linejoin="round"/>
<path d="M12.5 12.5001L9.96875 9.96887" stroke="#888888" stroke-width="1.3" stroke-linecap="round" stroke-linejoin="round"/>
</svg>
